<svg xmlns="http://www.w3.org/2000/svg" viewBox="0 0 512 512" role="img" aria-labelledby="title desc">
<title id="title">ABCivil excavator icon</title><desc id="desc">Stylised excavator boom, arm and bucket.</desc>
<g fill="none" fill-rule="evenodd">
  <path fill="#009AA7" d="M64 340c74-7 132-41 181-90l96-96c18-18 48-18 66 0 18 18 18 48 0 66l-29 29-38-38-70 70c-57 57-124 96-206 104z"/>
  <circle cx="373" cy="187" r="22" fill="#0E1111"/>
  <path fill="#009AA7" d="M398 222l30 31-56 151-44-38z"/>
  <path fill="#007982" d="M398 222l30 31-25 67-21-56z" opacity=".72"/>
  <path fill="#009AA7" d="M368 401c23-5 39-1 52 13 13 14 21 35 23 63H318c20-15 36-36 50-76z"/>
  <path fill="#007982" d="M368 401c12-3 22-3 31 0-11 34-27 60-48 76h-33c20-15 36-36 50-76z" opacity=".78"/>
</g></svg>